<svg xmlns="http://www.w3.org/2000/svg" viewBox="0 0 1560 1240">
<style>
  @import url('https://fonts.googleapis.com/css2?family=JetBrains+Mono:wght@400;500;600;700&amp;display=swap');
  text { font-family: 'JetBrains Mono', 'Noto Sans SC', 'PingFang SC', sans-serif; }
</style>
<defs>
  <pattern id="grid" width="40" height="40" patternUnits="userSpaceOnUse">
    <path d="M 40 0 L 0 0 0 40" fill="none" stroke="#1e293b" stroke-width="0.5"/>
  </pattern>
  <marker id="arrow-cyan" markerWidth="10" markerHeight="7" refX="9" refY="3.5" orient="auto"><polygon points="0 0, 10 3.5, 0 7" fill="#22d3ee"/></marker>
  <marker id="arrow-emerald" markerWidth="10" markerHeight="7" refX="9" refY="3.5" orient="auto"><polygon points="0 0, 10 3.5, 0 7" fill="#34d399"/></marker>
  <marker id="arrow-violet" markerWidth="10" markerHeight="7" refX="9" refY="3.5" orient="auto"><polygon points="0 0, 10 3.5, 0 7" fill="#a78bfa"/></marker>
  <marker id="arrow-slate" markerWidth="10" markerHeight="7" refX="9" refY="3.5" orient="auto"><polygon points="0 0, 10 3.5, 0 7" fill="#64748b"/></marker>
</defs>
<rect width="100%" height="100%" fill="#0f172a"/>
<rect width="100%" height="100%" fill="url(#grid)"/>

<text x="30" y="35" fill="white" font-size="18" font-weight="700">docs-governance 插件架构</text>
<text x="30" y="54" fill="#94a3b8" font-size="10">两条主线（活文档治理 / 契约式前后端协作）+ 自举治理（用自己的方法论治自己）</text>
<rect x="20" y="70" width="1520" height="1080" rx="12" fill="none" stroke="#fbbf24" stroke-width="1.2" stroke-dasharray="12,4"/>
<text x="36" y="92" fill="#fbbf24" font-size="11" font-weight="700">🔁 插件自身治理（自举 dogfood）</text>
<rect x="45" y="105" width="730" height="690" rx="12" fill="none" stroke="#22d3ee" stroke-width="1.2" stroke-dasharray="8,4"/>
<text x="61" y="127" fill="#22d3ee" font-size="11" font-weight="700">📘 主线一 · 活文档治理</text>
<rect x="80" y="155" width="150" height="60" rx="6" fill="rgba(8,51,68,0.4)" stroke="#22d3ee" stroke-width="1.5"/>
<text x="155.0" y="182.0" fill="white" font-size="9.5" font-weight="600" text-anchor="middle">/governance-init</text>
<text x="155.0" y="197.0" fill="#94a3b8" font-size="7.5" text-anchor="middle">新项目 day-0 骨架</text>
<rect x="250" y="155" width="150" height="60" rx="6" fill="rgba(8,51,68,0.4)" stroke="#22d3ee" stroke-width="1.5"/>
<text x="325.0" y="182.0" fill="white" font-size="9.5" font-weight="600" text-anchor="middle">/governance</text>
<text x="325.0" y="197.0" fill="#94a3b8" font-size="7.5" text-anchor="middle">扫描生成/更新四件套</text>
<rect x="420" y="155" width="150" height="60" rx="6" fill="rgba(8,51,68,0.4)" stroke="#22d3ee" stroke-width="1.5"/>
<text x="495.0" y="182.0" fill="white" font-size="9.5" font-weight="600" text-anchor="middle">/governance-audit</text>
<text x="495.0" y="197.0" fill="#94a3b8" font-size="7.5" text-anchor="middle">只读审计不改文件</text>
<rect x="590" y="155" width="150" height="60" rx="6" fill="rgba(8,51,68,0.4)" stroke="#22d3ee" stroke-width="1.5"/>
<text x="665.0" y="182.0" fill="white" font-size="9.5" font-weight="600" text-anchor="middle">/governance-sync</text>
<text x="665.0" y="197.0" fill="#94a3b8" font-size="7.5" text-anchor="middle">阶段收尾查漏补缺</text>
<rect x="190" y="265" width="200" height="60" rx="6" fill="rgba(6,78,59,0.4)" stroke="#34d399" stroke-width="1.5"/>
<text x="290.0" y="292.0" fill="white" font-size="11" font-weight="600" text-anchor="middle">docs-governor</text>
<text x="290.0" y="307.0" fill="#94a3b8" font-size="8" text-anchor="middle">生成/更新执行者</text>
<rect x="430" y="265" width="200" height="60" rx="6" fill="rgba(6,78,59,0.4)" stroke="#34d399" stroke-width="1.5"/>
<text x="530.0" y="292.0" fill="white" font-size="11" font-weight="600" text-anchor="middle">docs-auditor</text>
<text x="530.0" y="307.0" fill="#94a3b8" font-size="8" text-anchor="middle">只读审计员</text>
<path d="M 155,215 L 155,240.0 L 220,240.0 L 220,265" fill="none" stroke="#22d3ee" stroke-width="1.4" marker-end="url(#arrow-cyan)" opacity="0.8"/>
<path d="M 325,215 L 325,240.0 L 290,240.0 L 290,265" fill="none" stroke="#22d3ee" stroke-width="1.4" marker-end="url(#arrow-cyan)" opacity="0.8"/>
<path d="M 665,215 L 665,240.0 L 360,240.0 L 360,265" fill="none" stroke="#22d3ee" stroke-width="1.4" marker-end="url(#arrow-cyan)" opacity="0.8"/>
<path d="M 495,215 L 495,240.0 L 530,240.0 L 530,265" fill="none" stroke="#22d3ee" stroke-width="1.4" marker-end="url(#arrow-cyan)" opacity="0.8"/>
<rect x="240" y="375" width="320" height="70" rx="6" fill="rgba(59,130,246,0.35)" stroke="#60a5fa" stroke-width="2.2"/>
<text x="400.0" y="407.0" fill="white" font-size="11" font-weight="600" text-anchor="middle">★ living-docs-governance</text>
<text x="400.0" y="422.0" fill="#94a3b8" font-size="8" text-anchor="middle">方法论唯一源（agent 只指向，不复制）</text>
<line x1="290" y1="325" x2="290" y2="375" stroke="#34d399" stroke-width="1.5" marker-end="url(#arrow-emerald)" opacity="0.85"/>
<line x1="530" y1="325" x2="530" y2="375" stroke="#34d399" stroke-width="1.5" marker-end="url(#arrow-emerald)" opacity="0.85"/>
<rect x="90" y="475" width="560" height="130" rx="6" fill="rgba(30,41,59,0.5)" stroke="#94a3b8" stroke-width="1.5" stroke-dasharray="6,3"/>
<text x="115" y="497" fill="#e2e8f0" font-size="9.5" font-weight="600">依赖：templates/ + references/（给用户项目套用的空白母版）</text>
<text x="115" y="521" fill="#cbd5e1" font-size="8.5">· CLAUDE.example.md</text>
<text x="395" y="521" fill="#cbd5e1" font-size="8.5">· governance.example.md</text>
<text x="115" y="541" fill="#cbd5e1" font-size="8.5">· CLAUDE_MAP.example.md</text>
<text x="395" y="541" fill="#cbd5e1" font-size="8.5">· pre-commit.example ← 新增护栏</text>
<text x="115" y="561" fill="#cbd5e1" font-size="8.5">· PROJECT_STATUS.example.md</text>
<text x="395" y="561" fill="#cbd5e1" font-size="8.5">· governance-sync-matrix.md（reference）</text>
<text x="115" y="581" fill="#cbd5e1" font-size="8.5">· PROJECT_LOG.example.md</text>
<line x1="400" y1="445" x2="400" y2="475" stroke="#94a3b8" stroke-width="1.5" marker-end="url(#arrow-slate)" opacity="0.85"/>
<text x="370" y="628" fill="#a78bfa" font-size="9" text-anchor="middle">↓ 生成 / 更新到目标项目</text>
<rect x="80" y="640" width="150" height="70" rx="6" fill="rgba(76,29,149,0.35)" stroke="#a78bfa" stroke-width="1.5" stroke-dasharray="6,3"/>
<text x="155.0" y="672.0" fill="white" font-size="9.5" font-weight="600" text-anchor="middle">CLAUDE.md</text>
<text x="155.0" y="687.0" fill="#94a3b8" font-size="7.5" text-anchor="middle">宪法·硬规则+路标</text>
<rect x="250" y="640" width="150" height="70" rx="6" fill="rgba(76,29,149,0.35)" stroke="#a78bfa" stroke-width="1.5" stroke-dasharray="6,3"/>
<text x="325.0" y="672.0" fill="white" font-size="9.5" font-weight="600" text-anchor="middle">CLAUDE_MAP.md</text>
<text x="325.0" y="687.0" fill="#94a3b8" font-size="7.5" text-anchor="middle">地图·依赖/别动区</text>
<rect x="420" y="640" width="150" height="70" rx="6" fill="rgba(76,29,149,0.35)" stroke="#a78bfa" stroke-width="1.5" stroke-dasharray="6,3"/>
<text x="495.0" y="672.0" fill="white" font-size="9.5" font-weight="600" text-anchor="middle">PROJECT_STATUS.md</text>
<text x="495.0" y="687.0" fill="#94a3b8" font-size="7.5" text-anchor="middle">仪表盘·指标+P0</text>
<rect x="590" y="640" width="150" height="70" rx="6" fill="rgba(76,29,149,0.35)" stroke="#a78bfa" stroke-width="1.5" stroke-dasharray="6,3"/>
<text x="665.0" y="672.0" fill="white" font-size="9.5" font-weight="600" text-anchor="middle">PROJECT_LOG.md</text>
<text x="665.0" y="687.0" fill="#94a3b8" font-size="7.5" text-anchor="middle">流水账·只追加</text>
<line x1="370" y1="605" x2="370" y2="620" stroke="#a78bfa" stroke-width="1.5" marker-end="url(#arrow-violet)" opacity="0.85"/>
<rect x="805" y="105" width="730" height="690" rx="12" fill="none" stroke="#34d399" stroke-width="1.2" stroke-dasharray="8,4"/>
<text x="821" y="127" fill="#34d399" font-size="11" font-weight="700">📗 主线二 · 契约式前后端协作</text>
<rect x="1070" y="155" width="200" height="60" rx="6" fill="rgba(8,51,68,0.4)" stroke="#22d3ee" stroke-width="1.5"/>
<text x="1170.0" y="182.0" fill="white" font-size="10.5" font-weight="600" text-anchor="middle">/contract</text>
<text x="1170.0" y="197.0" fill="#94a3b8" font-size="8" text-anchor="middle">先判模式→定契约→对账</text>
<rect x="870" y="265" width="180" height="60" rx="6" fill="rgba(6,78,59,0.4)" stroke="#34d399" stroke-width="1.5"/>
<text x="960.0" y="292.0" fill="white" font-size="9.5" font-weight="600" text-anchor="middle">contract-director</text>
<text x="960.0" y="307.0" fill="#94a3b8" font-size="7.5" text-anchor="middle">契约拥有者/派活/对账</text>
<rect x="1080" y="265" width="180" height="60" rx="6" fill="rgba(6,78,59,0.4)" stroke="#34d399" stroke-width="1.5"/>
<text x="1170.0" y="292.0" fill="white" font-size="9.5" font-weight="600" text-anchor="middle">frontend-dev</text>
<text x="1170.0" y="307.0" fill="#94a3b8" font-size="7.5" text-anchor="middle">前端工人·只读契约</text>
<rect x="1290" y="265" width="180" height="60" rx="6" fill="rgba(6,78,59,0.4)" stroke="#34d399" stroke-width="1.5"/>
<text x="1380.0" y="292.0" fill="white" font-size="9.5" font-weight="600" text-anchor="middle">backend-dev</text>
<text x="1380.0" y="307.0" fill="#94a3b8" font-size="7.5" text-anchor="middle">后端工人·符合契约</text>
<path d="M 1170,215 L 1170,240.0 L 960,240.0 L 960,265" fill="none" stroke="#22d3ee" stroke-width="1.4" marker-end="url(#arrow-cyan)" opacity="0.8"/>
<line x1="1170" y1="215" x2="1170" y2="265" stroke="#22d3ee" stroke-width="1.5" marker-end="url(#arrow-cyan)" opacity="0.85"/>
<path d="M 1170,215 L 1170,240.0 L 1380,240.0 L 1380,265" fill="none" stroke="#22d3ee" stroke-width="1.4" marker-end="url(#arrow-cyan)" opacity="0.8"/>
<rect x="1010" y="375" width="320" height="70" rx="6" fill="rgba(59,130,246,0.35)" stroke="#60a5fa" stroke-width="2.2"/>
<text x="1170.0" y="407.0" fill="white" font-size="11" font-weight="600" text-anchor="middle">★ contract-first</text>
<text x="1170.0" y="422.0" fill="#94a3b8" font-size="8" text-anchor="middle">方法论唯一源·两种协作模式</text>
<path d="M 960,325 L 960,350.0 L 1050,350.0 L 1050,375" fill="none" stroke="#34d399" stroke-width="1.4" marker-end="url(#arrow-emerald)" opacity="0.8"/>
<line x1="1170" y1="325" x2="1170" y2="375" stroke="#34d399" stroke-width="1.5" marker-end="url(#arrow-emerald)" opacity="0.85"/>
<path d="M 1380,325 L 1380,350.0 L 1290,350.0 L 1290,375" fill="none" stroke="#34d399" stroke-width="1.4" marker-end="url(#arrow-emerald)" opacity="0.8"/>
<rect x="1040" y="475" width="260" height="60" rx="6" fill="rgba(30,41,59,0.5)" stroke="#94a3b8" stroke-width="1.5" stroke-dasharray="6,3"/>
<text x="1170.0" y="502.0" fill="white" font-size="9.5" font-weight="600" text-anchor="middle">依赖：templates/</text>
<text x="1170.0" y="517.0" fill="#94a3b8" font-size="8" text-anchor="middle">CONTRACT.example.md</text>
<line x1="1170" y1="445" x2="1170" y2="475" stroke="#94a3b8" stroke-width="1.5" marker-end="url(#arrow-slate)" opacity="0.85"/>
<text x="1170" y="628" fill="#a78bfa" font-size="9" text-anchor="middle">↓ 生成 / 更新到目标项目</text>
<rect x="1040" y="640" width="260" height="70" rx="6" fill="rgba(76,29,149,0.35)" stroke="#a78bfa" stroke-width="1.5" stroke-dasharray="6,3"/>
<text x="1170.0" y="672.0" fill="white" font-size="10" font-weight="600" text-anchor="middle">CONTRACT.md</text>
<text x="1170.0" y="687.0" fill="#94a3b8" font-size="8" text-anchor="middle">唯一真相源·前后端字段/类型/错误码</text>
<line x1="1170" y1="535" x2="1170" y2="640" stroke="#a78bfa" stroke-width="1.5" marker-end="url(#arrow-violet)" opacity="0.85"/>
<rect x="560" y="850" width="440" height="90" rx="6" fill="#0f172a"/>
<rect x="560" y="850" width="440" height="90" rx="6" fill="rgba(30,41,59,0.35)" stroke="#475569" stroke-width="1.5" stroke-dasharray="6,3"/>
<text x="780.0" y="892.0" fill="white" font-size="10.5" font-weight="600" text-anchor="middle">🧩 loop-design-check</text>
<text x="780.0" y="907.0" fill="#94a3b8" font-size="8.5" text-anchor="middle">写 loop + 体检 loop 方法论</text>
<text x="780.0" y="932" fill="#fb7185" font-size="8" text-anchor="middle" font-weight="600">⚠️ 与两条主线主题无关，待挪出（小磊已确认）</text>
<rect x="140" y="970" width="600" height="70" rx="6" fill="rgba(30,41,59,0.5)" stroke="#94a3b8" stroke-width="1.5"/>
<text x="440.0" y="1002.0" fill="white" font-size="10" font-weight="600" text-anchor="middle">scripts/verify.sh</text>
<text x="440.0" y="1017.0" fill="#94a3b8" font-size="7.5" text-anchor="middle">结构完整性自检：JSON可解析/hook可执行/引用不断链/无孤儿skill·退出码终审</text>
<rect x="800" y="970" width="600" height="70" rx="6" fill="rgba(30,41,59,0.5)" stroke="#94a3b8" stroke-width="1.5"/>
<text x="1100.0" y="1002.0" fill="white" font-size="10" font-weight="600" text-anchor="middle">hooks/check-on-stop.sh</text>
<text x="1100.0" y="1017.0" fill="#94a3b8" font-size="7.5" text-anchor="middle">会话结束提醒：相对时间残留/今日LOG未追加·仅提醒不阻塞</text>
<text x="40" y="1161" fill="#64748b" font-size="8">图例</text>
<rect x="40" y="1175" width="16" height="16" rx="3" fill="rgba(8,51,68,0.4)" stroke="#22d3ee" stroke-width="1.5"/>
<text x="62" y="1187" fill="#cbd5e1" font-size="9">command 命令·按钮</text>
<rect x="290" y="1175" width="16" height="16" rx="3" fill="rgba(6,78,59,0.4)" stroke="#34d399" stroke-width="1.5"/>
<text x="312" y="1187" fill="#cbd5e1" font-size="9">agent 执行者</text>
<rect x="540" y="1175" width="16" height="16" rx="3" fill="rgba(59,130,246,0.35)" stroke="#60a5fa" stroke-width="1.5"/>
<text x="562" y="1187" fill="#cbd5e1" font-size="9">skill 方法论唯一源</text>
<rect x="790" y="1175" width="16" height="16" rx="3" fill="rgba(30,41,59,0.5)" stroke="#94a3b8" stroke-width="1.5"/>
<text x="812" y="1187" fill="#cbd5e1" font-size="9">template/自检脚本</text>
<rect x="1040" y="1175" width="16" height="16" rx="3" fill="rgba(76,29,149,0.35)" stroke="#a78bfa" stroke-width="1.5"/>
<text x="1062" y="1187" fill="#cbd5e1" font-size="9">output 项目产出物</text>
<rect x="1290" y="1175" width="16" height="16" rx="3" fill="rgba(30,41,59,0.35)" stroke="#475569" stroke-width="1.5"/>
<text x="1312" y="1187" fill="#cbd5e1" font-size="9">孤儿·待挪出</text>
</svg>